<?xml version="1.0" encoding="UTF-8" standalone="no"?>
<!-- Created with Inkscape (http://www.inkscape.org/) -->

<svg
   xmlns:dc="http://purl.org/dc/elements/1.1/"
   xmlns:cc="http://creativecommons.org/ns#"
   xmlns:rdf="http://www.w3.org/1999/02/22-rdf-syntax-ns#"
   xmlns:svg="http://www.w3.org/2000/svg"
   xmlns="http://www.w3.org/2000/svg"
   xmlns:sodipodi="http://sodipodi.sourceforge.net/DTD/sodipodi-0.dtd"
   xmlns:inkscape="http://www.inkscape.org/namespaces/inkscape"
   width="1024"
   height="768"
   id="svg2"
   version="1.1"
   inkscape:version="0.48.4 r9939"
   sodipodi:docname="新建文档 1">
  <defs
     id="defs4" />
  <sodipodi:namedview
     id="base"
     pagecolor="#ffffff"
     bordercolor="#666666"
     borderopacity="1.0"
     inkscape:pageopacity="0.0"
     inkscape:pageshadow="2"
     inkscape:zoom="0.35"
     inkscape:cx="549.81867"
     inkscape:cy="274.06978"
     inkscape:document-units="px"
     inkscape:current-layer="layer1"
     showgrid="false"
     inkscape:window-width="1024"
     inkscape:window-height="718"
     inkscape:window-x="-2"
     inkscape:window-y="-3"
     inkscape:window-maximized="1" />
  <metadata
     id="metadata7">
    <rdf:RDF>
      <cc:Work
         rdf:about="">
        <dc:format>image/svg+xml</dc:format>
        <dc:type
           rdf:resource="http://purl.org/dc/dcmitype/StillImage" />
        <dc:title></dc:title>
      </cc:Work>
    </rdf:RDF>
  </metadata>
  <g
     inkscape:label="Layer 1"
     inkscape:groupmode="layer"
     id="layer1"
     transform="translate(0,-284.36218)">
    <path
       style="fill:#000000;stroke:#000000;stroke-width:0.46634394px;stroke-linecap:butt;stroke-linejoin:miter;stroke-opacity:1"
       d="m 288.13521,565.93742 c -5.08352,0.19694 -8.41709,3.57462 -9.02084,25.0077 -32.79166,77.46317 -95.18693,163.26482 -160.23286,194.2031 -20.319274,9.32688 -16.99033,0.005 -16.65722,-3.99307 l -22.982021,16.6572 c 0,0 -1.99237,5.65237 1.00556,7.65098 2.99792,1.99861 11.991697,7.99448 32.644071,-4.66344 72.44989,-39.75251 129.45266,-116.92604 161.22385,-175.21419 6.05423,39.54741 -9.1607,90.01585 10.65304,95.93572 13.32411,4.66344 27.31662,-17.53952 35.64617,-25.31376 9.99308,-9.32688 52.62399,-69.95159 52.62399,-69.95159 -1.59489,25.04239 -9.6999,52.85967 -3.65788,59.95434 4.01805,7.50399 7.43164,7.56438 14.66069,3.3373 4.33033,-2.66483 8.32132,-4.99865 3.65788,-7.33037 -17.81648,-12.87361 -14.48065,-13.24109 -2.6669,-64.95294 2.66482,-10.99238 8.99169,-21.65585 8.99169,-21.65585 0,0 -0.65788,-12.31647 -10.31786,-3.3227 -9.65998,8.99377 -25.80508,40.49302 -46.96958,71.27774 -25.64892,37.30751 -38.97094,45.63301 -43.96749,46.29923 -4.99654,0.66622 -11.50503,-2.98824 -11.0028,-20.31511 0.66621,-22.98413 -1.66551,-56.30063 2.33172,-75.62061 3.99724,-19.31993 7.66137,-22.31577 9.32688,-29.97714 1.66551,-7.66138 2.33796,-17.65028 -3.65789,-17.98339 -0.56211,-0.0312 -1.10632,-0.0495 -1.6322,-0.0289 z m 551.16025,14.35463 c -3.59977,-0.053 -8.2901,2.96669 -8.53993,5.46499 -0.3331,3.331 -0.0916,11.40458 -5.42125,33.7225 -5.32964,22.31786 -5.65442,28.651 -5.65442,28.651 l -7.11174,1.09297 c 0,0 -3.54755,-12.41846 -9.2103,-8.08813 -12.2181,9.49061 -12.57981,22.25445 -26.33386,27.66003 0,0 4.01389,-21.66835 0.34976,-25.99868 -3.66413,-4.33033 -8.65443,-8.98962 -24.64336,7.66553 -17.4328,19.78679 -15.43229,18.11979 -18.65376,1.99651 -1.49896,-7.9112 -14.98963,-5.65647 -16.32204,3.3373 -2.19208,16.03262 9.24313,0.56539 9.64749,10.98823 0.33311,5.99583 -5.9896,2.66688 -5.9896,2.66688 0,0 -6.6683,13.65516 -28.98619,20.65032 -22.31789,6.99515 -27.03561,7.80282 -27.98064,4.66343 -2.65714,-9.83668 21.75715,-22.80962 21.37896,-36.22909 -12.50638,-25.66976 -34.36151,5.8612 -36.17081,22.35536 -0.6662,9.32688 1.81333,11.54201 -1.8508,13.87373 -3.66413,2.33172 -8.19016,4.79253 -10.52188,2.1277 -2.33172,-2.66483 -1.14088,-15.46014 0.52463,-22.12219 1.66551,-6.66205 3.00209,-17.65028 -1.66135,-17.98339 -4.66344,-0.33311 -10.32619,9.66829 -13.99032,19.9945 -3.66413,10.32616 -9.6683,23.97922 -12.99933,24.97854 -3.33103,0.99929 -4.9903,-4.00347 -3.65789,-17.32761 1.33241,-13.3241 -7.00348,-17.31717 -10.66761,-8.65651 -3.66413,8.66071 -4.69553,15.63772 -7.98614,21.32068 -3.3383,5.76532 -9.33729,12.98684 -6.33937,-7.66552 4.41559,-24.80586 -0.84815,-55.85243 -20.98547,-44.63789 -15.65584,8.99382 -24.64545,16.98826 -29.64199,20.98548 -4.99654,3.99727 -13.99448,11.65655 -12.32897,1.99656 1.66552,-9.65999 -0.26024,-22.63853 -11.58573,-4.98405 -7.99214,14.46384 -26.61298,45.84893 -36.71001,33.97022 -4.82999,-13.15752 -1.99446,-28.64266 -3.99307,-31.97371 -1.99862,-3.331 -8.65859,0.66622 -11.32342,6.99516 -2.66482,6.32899 -7.32825,2.99379 -4.66343,-7.66553 2.66482,-10.65927 -4.99654,-14.65444 -11.6586,-13.65511 0,0 -16.99241,4.32618 -26.31929,24.97855 -6.08517,13.47431 -7.6572,23.48582 -6.32479,30.64752 1.2722,6.83809 6.81546,8.96005 11.99379,8.6565 9.8555,-0.57766 22.30956,-9.31643 26.63989,-14.64609 4.33034,-5.32965 6.32479,-13.49482 6.32479,-13.49482 l 7.50522,-5.66902 c 0,0 0.0381,19.67645 3.83277,24.48306 4.99654,6.32898 11.32133,5.99377 20.31511,-0.33517 8.99377,-6.32894 22.31164,-22.98203 22.31164,-22.98203 0,0 5.0007,-4.33238 3.00209,1.99656 -1.99862,6.32894 -9.54242,16.06783 -8.32133,19.32412 0.99931,2.66483 3.83068,3.67036 6.99516,1.00553 3.26296,-2.74774 9.65582,-14.65858 15.65167,-21.32063 5.99585,-6.66205 21.64544,-22.32207 26.97508,-23.98757 5.32965,-1.6655 -3.19939,8.1516 -5.31923,19.65929 -1.16586,6.32898 -1.50938,11.48582 1.82165,14.15065 3.33103,2.66482 9.16241,1.6655 15.49137,-4.66344 6.32895,-6.32894 6.00001,-7.99654 9.99724,-9.66209 3.99724,-1.6655 3.63643,1.71852 0.67037,22.15134 -2.49757,57.061 -42.20979,68.71955 -52.97375,154.56387 0,22.06436 25.9214,-8.59183 43.64688,-59.29853 7.07994,-23.1987 8.03197,-42.54087 13.99031,-64.77811 2.99793,-10.99238 5.32548,-14.82097 10.98823,-24.14785 5.66275,-9.32688 10.32827,-19.65514 9.66207,-7.33036 -0.66621,12.32481 0.0175,14.56089 1.47189,17.07984 10.80204,10.26652 22.9254,-19.23487 26.17356,-26.07152 2.66481,-5.66276 1.66135,1.5997 1.66135,10.31786 0,5.27221 5.66482,8.32965 11.99378,7.33032 6.32895,-0.99928 12.66415,-4.99445 14.99587,-6.65995 8.92736,2.5524 13.66534,3.78424 34.27628,-1.87997 14.65535,-4.69445 24.18628,-9.17639 35.34013,-19.1055 0,0 -3.50591,8.91048 -2.5066,12.24152 16.91994,6.18396 16.57688,-24.78851 29.19021,-24.32277 7.54707,-15.54557 12.38432,-19.24088 17.28388,-18.52257 6.31221,0.92541 -0.33935,15.60792 -1.00556,24.9348 2.56918,18.12399 25.32945,-4.5324 31.98828,-13.65511 4.33034,-6.32894 3.98475,-9.32063 7.31577,-8.32135 3.33103,0.99933 1.7974,6.02018 6.32479,7.5198 2.66136,0.88157 6.74325,-0.70782 8.40877,-2.04026 7.38849,7.88835 14.78901,15.03978 27.36854,11.73149 4.66344,-1.33244 8.75439,-7.4386 3.42474,-8.43793 -5.32966,-0.99928 -6.20821,3.54342 -10.87165,1.54476 -4.66344,-1.99861 -11.66276,-6.32269 -5.33381,-10.65302 6.32894,-4.33033 16.29705,-11.34839 23.95842,-13.01393 7.66134,-1.6655 11.01113,-1.63846 7.68008,9.02086 -3.331,10.65927 -5.6727,22.51266 -2.46285,29.23394 2.5066,5.24879 8.54309,7.23038 13.99027,7.94239 13.42599,1.65842 45.11789,-15.11929 54.40196,-31.01187 2.66483,-5.32961 -0.0973,-11.46819 -8.24846,-10.63847 -5.91501,0.60214 -9.65164,4.30328 -7.98614,7.30122 1.66555,2.99794 5.27551,2.15684 5.27551,2.15684 -8.35208,13.11219 -29.41716,25.90485 -44.40466,23.44833 -9.32711,-1.6655 -3.55998,-25.76965 0.43715,-33.43103 8.0615,-18.85568 25.79997,-30.04089 24.30818,-14.99585 -1.77341,23.05306 -26.73858,21.20891 -23.82724,31.27419 1.74287,4.75755 12.83696,1.04298 14.83557,0.0438 11.70859,-7.78692 19.79117,-22.87412 17.64823,-38.98341 -3.99732,-16.39652 -23.73593,-10.26778 -28.3013,-1.66136 -13.20952,24.37412 -9.22354,6.65893 -27.65998,13.31995 -12.99103,4.99655 -21.97646,9.99725 -21.97646,9.99725 0,0 -2.84386,-1.6697 1.48647,-19.32413 4.33034,-17.65447 4.46772,-20.21517 8.13188,-27.54343 3.66411,-7.32827 4.36782,-11.09652 1.36988,-14.42752 -0.7495,-0.83275 -1.83133,-1.19193 -3.03123,-1.2096 z m -69.5144,10.66762 c -3.77556,0 -7.27205,1.00557 -7.27205,1.00557 -5.16714,2.44323 -3.86587,10.82912 1.29702,11.54202 4.00417,1.29545 2.94002,-3.46363 6.82028,-3.64332 0,0 2.38785,1.05907 5.53783,-1.66135 2.59093,-2.23761 0.83311,-6.34684 -3.7599,-7.05345 -0.86119,-0.13249 -1.7519,-0.18947 -2.62318,-0.18947 z m -96.66436,66.84751 c 5.65295,0 2.83121,6.35776 -0.46634,11.77518 -3.29755,5.41738 -8.01092,11.5298 -9.89524,11.29425 -1.88431,-0.23551 -4.00417,1.19206 0,-10.11384 4.00417,-11.30585 10.36158,-12.95559 10.36158,-12.95559 z m -111.71851,0.18943 c 2.11797,-0.15199 3.87241,2.99971 5.72728,6.86402 2.82648,5.88848 1.65751,6.36998 -3.7599,12.02291 -5.4174,5.65297 -9.42926,8.46834 -10.84249,3.99307 -1.41323,-4.47523 5.18807,-19.54271 5.18807,-19.54271 1.37644,-2.26708 2.57762,-3.25764 3.68704,-3.33729 z m -122.9545,2.49205 c 6.21546,-0.23085 4.87757,10.72418 3.14782,18.50802 -4.14244,15.67112 -22.91224,33.24822 -27.55801,21.20405 -1.41323,-3.53307 -0.48491,-8.96 2.81264,-17.9105 3.29755,-8.95049 11.54201,-16.48236 11.54201,-16.48236 4.56726,-3.69135 7.8074,-5.23574 10.05554,-5.31921 z m 122.85248,96.21258 c 4.22085,-0.14807 -1.76092,29.71366 -17.95424,61.73228 -20.72745,40.98384 -11.07493,2.58909 -8.24846,-7.06805 5.97873,-19.37552 11.40696,-29.20903 20.25682,-46.86757 2.7823,-5.35847 4.76405,-7.7552 5.94588,-7.79666 z"
       id="path3017"
       inkscape:connector-curvature="0" />
  </g>
</svg>
